<svg xmlns="http://www.w3.org/2000/svg" xmlns:xlink="http://www.w3.org/1999/xlink" width="500" zoomAndPan="magnify" viewBox="0 0 375 374.999991" height="500" preserveAspectRatio="xMidYMid meet" version="1.0"><defs><clipPath id="beb3232e53"><path d="M 2.089844 7.886719 L 374.839844 7.886719 L 374.839844 367.136719 L 2.089844 367.136719 Z M 2.089844 7.886719 " clip-rule="nonzero"/></clipPath><clipPath id="c6182de6e9"><path d="M 12 7.886719 L 366 7.886719 L 366 362 L 12 362 Z M 12 7.886719 " clip-rule="nonzero"/></clipPath></defs><g clip-path="url(#beb3232e53)"><rect x="-37.5" width="450" fill="#ffffff" y="-37.499999" height="449.999989" fill-opacity="1"/></g><g clip-path="url(#c6182de6e9)"><path fill="#734545" d="M 338.445312 157.453125 L 338.445312 122.65625 L 313.835938 98.046875 L 313.835938 59.703125 L 275.488281 59.703125 L 250.878906 35.09375 L 216.078125 35.09375 L 188.960938 7.980469 L 161.84375 35.09375 L 127.042969 35.09375 L 102.433594 59.703125 L 64.085938 59.703125 L 64.085938 98.046875 L 39.476562 122.65625 L 39.476562 157.453125 L 12.359375 184.570312 L 39.476562 211.683594 L 39.476562 246.480469 L 64.085938 271.089844 L 64.085938 309.433594 L 102.433594 309.433594 L 127.042969 334.042969 L 161.84375 334.042969 L 188.960938 361.15625 L 216.078125 334.042969 L 250.878906 334.042969 L 275.488281 309.433594 L 313.835938 309.433594 L 313.835938 271.089844 L 338.445312 246.484375 L 338.445312 211.683594 L 365.5625 184.570312 Z M 39.476562 195.785156 L 28.261719 184.570312 L 39.476562 173.355469 Z M 64.085938 255.191406 L 50.71875 241.824219 L 50.71875 222.925781 L 64.085938 236.289062 Z M 64.085938 220.390625 L 50.71875 207.027344 L 50.71875 162.109375 L 64.085938 148.746094 Z M 64.085938 132.847656 L 50.71875 146.210938 L 50.71875 127.3125 L 64.085938 113.949219 Z M 246.222656 46.339844 L 259.585938 59.703125 L 240.6875 59.703125 L 227.320312 46.339844 Z M 302.347656 137.605469 L 302.347656 231.53125 L 235.925781 297.949219 L 141.992188 297.949219 L 75.570312 231.53125 L 75.570312 137.605469 L 141.992188 71.1875 L 235.925781 71.1875 Z M 188.960938 23.878906 L 200.175781 35.09375 L 177.742188 35.09375 Z M 166.5 46.339844 L 211.417969 46.339844 L 224.785156 59.703125 L 153.136719 59.703125 Z M 131.699219 46.339844 L 150.601562 46.339844 L 137.234375 59.703125 L 118.335938 59.703125 Z M 75.328125 70.945312 L 91.191406 70.945312 L 75.328125 86.804688 C 75.328125 86.804688 75.328125 70.945312 75.328125 70.945312 Z M 75.328125 102.703125 L 107.089844 70.945312 L 125.992188 70.945312 L 75.328125 121.605469 C 75.328125 121.605469 75.328125 102.703125 75.328125 102.703125 Z M 75.328125 298.191406 L 75.328125 282.332031 L 91.191406 298.191406 Z M 75.328125 266.433594 L 75.328125 247.53125 L 125.992188 298.191406 L 107.089844 298.191406 Z M 131.699219 322.800781 L 118.335938 309.433594 L 137.234375 309.433594 L 150.601562 322.800781 Z M 188.960938 345.257812 L 177.746094 334.042969 L 200.175781 334.042969 Z M 211.417969 322.800781 L 166.5 322.800781 L 153.136719 309.433594 L 224.785156 309.433594 Z M 246.222656 322.800781 L 227.320312 322.800781 L 240.6875 309.433594 L 259.585938 309.433594 Z M 302.59375 298.191406 L 286.730469 298.191406 L 302.59375 282.332031 Z M 302.59375 266.433594 L 270.832031 298.191406 L 251.929688 298.191406 L 302.59375 247.53125 Z M 302.59375 121.605469 L 251.929688 70.945312 L 270.832031 70.945312 L 302.59375 102.703125 Z M 302.59375 86.804688 L 286.730469 70.945312 L 302.59375 70.945312 Z M 327.203125 241.824219 L 313.835938 255.191406 L 313.835938 236.289062 L 327.203125 222.925781 Z M 327.203125 207.027344 L 313.835938 220.390625 L 313.835938 148.746094 L 327.203125 162.109375 Z M 327.203125 146.210938 L 313.835938 132.847656 L 313.835938 113.949219 L 327.203125 127.3125 Z M 338.445312 173.355469 L 349.660156 184.570312 L 338.445312 195.785156 Z M 338.445312 173.355469 " fill-opacity="1" fill-rule="nonzero"/></g><path fill="#a61f23" d="M 189.167969 162.101562 C 215.484375 162.101562 239.265625 171.746094 254.027344 187.132812 C 256.898438 177.175781 258.921875 163.664062 253.398438 153.484375 C 248.304688 144.105469 244.1875 134.523438 244.523438 127.011719 C 244.523438 127.011719 238.386719 129.742188 235.996094 142.082031 C 234.808594 148.222656 231.554688 154.3125 221.316406 151.925781 C 199.074219 146.738281 220.300781 109.035156 185.132812 91.859375 C 185.132812 91.859375 188.425781 95.371094 190.105469 103.695312 C 193.113281 118.628906 194.1875 139.894531 176.757812 142.183594 C 171.914062 142.816406 162.324219 127.234375 166.875 110.398438 C 166.875 110.398438 149.738281 126.785156 152.179688 155.457031 C 153.566406 171.78125 130.464844 168.816406 136.703125 153.636719 C 140.214844 145.105469 134.945312 132.613281 120.320312 130.882812 C 120.320312 130.882812 132.230469 140.324219 120.320312 159.097656 C 113.421875 169.980469 117.71875 183.378906 120.496094 192.175781 C 135.125 173.882812 160.957031 162.101562 189.167969 162.101562 Z M 189.167969 162.101562 " fill-opacity="1" fill-rule="nonzero"/><path fill="#231f20" d="M 185.390625 187.523438 C 185.390625 185.953125 186.925781 182.378906 187.710938 180.902344 C 188.574219 179.265625 191.277344 179.253906 192.148438 180.902344 C 192.933594 182.378906 194.472656 185.949219 194.472656 187.523438 C 194.472656 190.023438 192.433594 192.0625 189.929688 192.0625 C 187.425781 192.0625 185.390625 190.023438 185.390625 187.523438 Z M 210.296875 189.273438 C 211.292969 189.273438 212.242188 188.953125 213.042969 188.34375 C 214.007812 187.613281 214.628906 186.546875 214.792969 185.34375 C 214.957031 184.140625 214.644531 182.949219 213.90625 181.980469 C 212.957031 180.730469 209.570312 178.820312 208.054688 178.125 C 207.039062 177.65625 205.808594 177.9375 205.089844 178.777344 C 204.609375 179.339844 204.402344 180.078125 204.523438 180.808594 C 204.789062 182.453125 205.722656 186.226562 206.679688 187.476562 C 207.546875 188.617188 208.867188 189.273438 210.296875 189.273438 Z M 169.664062 189.273438 C 171.09375 189.273438 172.414062 188.617188 173.277344 187.480469 C 174.230469 186.234375 175.164062 182.457031 175.433594 180.808594 C 175.554688 180.078125 175.347656 179.339844 174.875 178.777344 C 174.152344 177.9375 172.921875 177.652344 171.90625 178.125 C 170.386719 178.820312 167.007812 180.730469 166.050781 181.980469 C 165.316406 182.949219 165 184.140625 165.164062 185.34375 C 165.328125 186.546875 165.949219 187.613281 166.917969 188.34375 C 167.714844 188.953125 168.664062 189.273438 169.664062 189.273438 Z M 261.933594 250.410156 C 264.046875 253.515625 264.015625 257.890625 261.84375 263.414062 C 258.578125 271.710938 251.28125 277.28125 246.519531 277.28125 L 131.414062 277.28125 C 126.855469 277.28125 119.445312 271.601562 116.101562 263.449219 C 113.863281 257.988281 113.789062 253.632812 115.886719 250.507812 C 117.722656 247.769531 121.097656 246.242188 125.664062 246.023438 C 120.957031 245.390625 117.304688 241.394531 117.304688 236.523438 C 117.304688 231.539062 120.894531 227.550781 125.542969 226.867188 C 122.136719 226.316406 118.046875 224.9375 115.683594 221.550781 C 113.527344 218.464844 113.3125 214.53125 115.03125 209.851562 C 124.46875 184.132812 154.957031 166.164062 189.167969 166.164062 C 224.535156 166.164062 255.046875 184.171875 263.347656 209.957031 C 264.960938 214.972656 263.449219 218.566406 261.898438 220.699219 C 259.449219 224.058594 255.242188 226.046875 251.367188 226.839844 C 256.152344 227.394531 259.890625 231.425781 259.890625 236.355469 C 259.890625 241.308594 256.347656 245.277344 251.746094 246 C 256.574219 246.121094 260.011719 247.59375 261.933594 250.410156 Z M 126.597656 199.777344 C 128.566406 201.394531 132.550781 203.347656 140.40625 203.347656 C 153.828125 203.347656 200.542969 205.070312 220.492188 203.347656 C 226.539062 202.824219 241.261719 199.742188 233.535156 182.953125 C 221.304688 175.78125 205.835938 171.582031 189.167969 171.582031 C 162.910156 171.582031 139.09375 182.71875 126.597656 199.777344 Z M 129.921875 221.820312 L 247.648438 221.820312 C 250.910156 221.820312 255.476562 220.304688 257.515625 217.507812 C 258.714844 215.859375 258.9375 213.933594 258.1875 211.617188 C 257.804688 210.425781 257.328125 209.261719 256.839844 208.101562 C 252.28125 210.199219 238.628906 209.207031 233.042969 209.207031 C 205.773438 209.207031 139.105469 209.207031 139.105469 209.207031 C 139.105469 209.207031 126.402344 209.550781 123.335938 204.890625 C 122.089844 207.101562 120.980469 209.367188 120.113281 211.722656 C 119.042969 214.640625 119.042969 216.902344 120.128906 218.449219 C 121.863281 220.9375 126.320312 221.820312 129.921875 221.820312 Z M 134.039062 231.15625 C 134.757812 233.96875 135.976562 238.527344 137.832031 244.585938 C 138.183594 245.789062 140.25 251.917969 142.367188 256.933594 C 142.542969 257.324219 142.980469 257.367188 143.265625 257.214844 C 149.609375 253.964844 165.027344 246.136719 170.675781 243.542969 C 177.066406 240.621094 190.695312 235.230469 201.121094 231.15625 Z M 257.457031 253.460938 C 256.226562 251.664062 252.957031 251.394531 251.117188 251.394531 L 166.847656 251.394531 C 159.917969 254.804688 150.386719 259.65625 145.722656 262.039062 C 144.863281 262.476562 143.90625 262.707031 142.953125 262.707031 C 140.519531 262.707031 138.332031 261.265625 137.390625 259.039062 C 136.308594 256.5 135.265625 253.734375 134.421875 251.394531 L 126.816406 251.394531 C 124.945312 251.394531 121.628906 251.667969 120.386719 253.523438 C 119.371094 255.039062 119.621094 257.761719 121.113281 261.398438 C 123.933594 268.261719 129.871094 271.863281 131.414062 271.863281 L 246.519531 271.863281 C 248.363281 271.863281 254.097656 268.316406 256.800781 261.433594 C 258.257812 257.730469 258.480469 254.972656 257.457031 253.460938 Z M 257.457031 253.460938 " fill-opacity="1" fill-rule="nonzero"/></svg>